<svg xmlns="http://www.w3.org/2000/svg" viewBox="0 0 64 32" width="64" height="32">
  <defs>
    <radialGradient id="g" cx="32" cy="16" r="22" gradientUnits="userSpaceOnUse">
      <stop offset="0%" stop-color="#1E2028"/>
      <stop offset="100%" stop-color="#0A0A10"/>
    </radialGradient>
    <clipPath id="d">
      <polygon points="32,0 64,16 32,32 0,16"/>
    </clipPath>
  </defs>
  <polygon points="32,0 64,16 32,32 0,16" fill="url(#g)"/>
  <g clip-path="url(#d)">
    <ellipse cx="36" cy="20" rx="9" ry="5" fill="#080810" opacity="0.72"/>
    <rect x="18" y="10" width="2" height="2" rx="1" fill="#3C3C4C"/>
    <rect x="28" y="6" width="2" height="2" rx="1" fill="#3C3C4C"/>
    <rect x="44" y="12" width="2" height="2" rx="1" fill="#3C3C4C"/>
    <rect x="14" y="20" width="2" height="2" rx="1" fill="#3A3A48"/>
    <rect x="50" y="18" width="2" height="2" rx="1" fill="#3A3A48"/>
    <rect x="22" y="24" width="2" height="2" rx="1" fill="#3C3C4C"/>
    <rect x="42" y="8" width="2" height="2" rx="1" fill="#3A3A48"/>
    <rect x="56" y="14" width="2" height="2" rx="1" fill="#3A3A48"/>
    <line x1="24" y1="18" x2="28" y2="13" stroke="#4A4A58" stroke-width="1.5" opacity="0.80"/>
    <line x1="28" y1="13" x2="30" y2="16" stroke="#4A4A58" stroke-width="1.2" opacity="0.70"/>
  </g>
</svg>
