<svg xmlns="http://www.w3.org/2000/svg" viewBox="0 0 128 144">
  <defs>
    <filter id="smoke-blur" x="-20%" y="-20%" width="140%" height="140%"><feGaussianBlur stdDeviation="2.5" /></filter>
    <radialGradient id="bog-center" cx="50%" cy="66%" r="40%">
      <stop offset="0%" stop-color="#4d4d4d" /><stop offset="100%" stop-color="#2b2b2b" stop-opacity="0" />
    </radialGradient>
  </defs>
  <polygon points="0,96 64,128 64,144 0,112" fill="#1c1c1c" stroke="#1c1c1c" stroke-width="1" />
  <polygon points="64,128 128,96 128,112 64,144" fill="#0a0a0a" stroke="#0a0a0a" stroke-width="1" />
  <polygon points="64,64 128,96 64,128 0,96" fill="#2b2b2b" stroke="#2b2b2b" stroke-width="1" stroke-linejoin="round" />
  <polygon points="64,64 128,96 64,128 0,96" fill="url(#bog-center)" />
  <!-- Variante 2: Pfützen auf der rechten Seite konzentriert, mehr Funken -->
  <path d="M 70,80 Q 90,75 100,90 Q 110,105 85,110 Q 55,110 60,95 Q 65,80 70,80" fill="#1a1a1a" />
  <ellipse cx="80" cy="95" rx="15" ry="8" fill="#141414" />
  <circle cx="95" cy="90" r="1.5" fill="#ff5500" filter="url(#smoke-blur)" />
  <circle cx="65" cy="85" r="1.2" fill="#cc3300" />
  <circle cx="50" cy="100" r="1" fill="#ff7700" filter="url(#smoke-blur)" />
  <path d="M 80,95 Q 75,80 90,65" fill="none" stroke="#a3a3a3" stroke-width="2.5" opacity="0.5" filter="url(#smoke-blur)" />
</svg>
