<svg viewBox="0 0 128 144" xmlns="http://www.w3.org/2000/svg"><defs><filter id="a" x="-20%" y="-20%" width="140%" height="140%"><feGaussianBlur stdDeviation="2.5"/></filter><radialGradient id="b" cy="66%" r="40%"><stop stop-color="#4d4d4d" offset="0"/><stop stop-color="#2b2b2b" stop-opacity="0" offset="1"/></radialGradient></defs><polygon points="0 96 64 128 64 144 0 112" fill="#1c1c1c" stroke="#1c1c1c"/><polygon points="64 128 128 96 128 112 64 144" fill="#0a0a0a" stroke="#0a0a0a"/><polygon points="64 64 128 96 64 128 0 96" fill="#2b2b2b" stroke="#2b2b2b" stroke-linejoin="round"/><polygon points="64 64 128 96 64 128 0 96" fill="url(#b)"/><path d="m50 75q20-3 30 10 10 10-5 20-30 5-35-10t10-20" fill="#1a1a1a"/><ellipse cx="45" cy="90" rx="14" ry="7" fill="#141414"/><ellipse cx="85" cy="95" rx="10" ry="5" fill="#1f1f1f"/><path d="m75 85q0-5 5-5t5 5-5 5-5-5" fill="#a1998b"/><circle cx="78" cy="84" r="1.2" fill="#140909"/><circle cx="82" cy="84" r="1.2" fill="#140909"/><circle cx="45" cy="85" r="1" fill="#f50" filter="url(#a)"><animate attributeName="cy" dur="4s" repeatCount="indefinite" values="85; 75; 85"/><animate attributeName="opacity" dur="2s" repeatCount="indefinite" values="1; 0.2; 1"/></circle><circle cx="80" cy="100" r=".8" fill="#f70"><animate attributeName="cy" dur="5s" repeatCount="indefinite" values="100; 88; 100"/></circle><path d="m50 90q5-15-10-25-5-5 0-10" fill="none" filter="url(#a)" opacity=".4" stroke="#a3a3a3" stroke-width="3"/></svg>