<svg viewBox="0 0 128 144" xmlns="http://www.w3.org/2000/svg"><defs><filter id="a" x="-60%" y="-60%" width="220%" height="220%"><feGaussianBlur result="b" stdDeviation="2.5"/><feMerge><feMergeNode in="b"/><feMergeNode in="SourceGraphic"/></feMerge></filter><filter id="b" x="-30%" y="-60%" width="160%" height="220%"><feGaussianBlur stdDeviation="3.2"/></filter><radialGradient id="c" cy="60%" r="54%"><stop stop-color="#3e3e3e" offset="0"/><stop stop-color="#2c2c2c" offset=".55"/><stop stop-color="#181818" offset="1"/></radialGradient></defs><polygon points="0 96 64 128 64 144 0 112" fill="#1e1e1e"/><polygon points="64 128 128 96 128 112 64 144" fill="#0c0c0c"/><polygon points="64 64 128 96 64 128 0 96" fill="url(#c)"/><path d="m64 64-64 32" fill="none" opacity=".4" stroke="#3c3c3c"/><path d="m46 79q20-6 34 5 10 12-6 24-26 4-34-11-7-15 6-18" fill="#181818"/><ellipse cx="45" cy="95" rx="13" ry="7" fill="#141414"/><ellipse cx="88" cy="103" rx="12" ry="6" fill="#141414"/><ellipse cx="26" cy="107" rx="9" ry="4.5" fill="#161616"/><path d="m38 88q10-4 18 0" fill="none" opacity=".5" stroke="#3a3a3a" stroke-width=".8"/><circle class="al" cx="44" cy="87" r="2.2" fill="#f50" filter="url(#a)"/><circle class="als" cx="73" cy="80" r="1.7" fill="#f70" filter="url(#a)"/><circle class="alq" cx="88" cy="97" r="1.8" fill="#f40" filter="url(#a)"/><circle class="als" cx="24" cy="102" r="1.3" fill="#f60" filter="url(#a)"/><circle class="al" cx="58" cy="105" r="1.4" fill="#f50" filter="url(#a)"/><path class="as" d="m45 83q-4-13-2-25 4-11 0-20" fill="none" filter="url(#b)" opacity=".32" stroke="#999" stroke-width="4"/><path class="as2" d="m74 78q4-13 2-26" fill="none" filter="url(#b)" opacity=".22" stroke="#bbb" stroke-width="3"/></svg>