<svg viewBox="0 0 128 144" xmlns="http://www.w3.org/2000/svg"><defs><filter id="a" x="-60%" y="-60%" width="220%" height="220%"><feGaussianBlur result="b" stdDeviation="2.5"/><feMerge><feMergeNode in="b"/><feMergeNode in="SourceGraphic"/></feMerge></filter><filter id="b" x="-40%" y="-60%" width="180%" height="220%"><feGaussianBlur stdDeviation="3.8"/></filter><radialGradient id="c" cx="48%" cy="60%" r="54%"><stop stop-color="#3a3a3a" offset="0"/><stop stop-color="#161616" offset="1"/></radialGradient></defs><polygon points="0 96 64 128 64 144 0 112" fill="#1c1c1c"/><polygon points="64 128 128 96 128 112 64 144" fill="#0a0a0a"/><polygon points="64 64 128 96 64 128 0 96" fill="url(#c)"/><path d="m64 64-64 32" fill="none" opacity=".35" stroke="#3a3a3a"/><path d="m64 76q34 2 46 20-12 20-46 24-38-4-46-24 8-18 46-20" fill="#111"/><ellipse cx="64" cy="96" rx="30" ry="15" fill="#0e0e0e"/><circle cx="50" cy="90" r="3.5" fill="none" stroke="#333" stroke-width=".9"/><circle cx="78" cy="103" r="2.5" fill="none" stroke="#2e2e2e" stroke-width=".8"/><circle class="als" cx="64" cy="89" r="2.2" fill="#f50" filter="url(#a)"/><circle class="al" cx="34" cy="100" r="1.6" fill="#f60" filter="url(#a)"/><circle class="alq" cx="95" cy="92" r="1.8" fill="#f40" filter="url(#a)"/><path class="as" d="m64 80q-6-15-2-30 4-12-2-22" fill="none" filter="url(#b)" opacity=".28" stroke="#aaa" stroke-width="4.5"/><path class="as2" d="m46 90q-6-16-2-32" fill="none" filter="url(#b)" opacity=".22" stroke="#888" stroke-width="3.5"/></svg>