<svg viewBox="0 0 128 144" xmlns="http://www.w3.org/2000/svg"><defs><filter id="a" x="-20%" y="-20%" width="140%" height="140%"><feGaussianBlur stdDeviation="2.5"/></filter><radialGradient id="b" cy="66%" r="40%"><stop stop-color="#4d4d4d" offset="0"/><stop stop-color="#2b2b2b" stop-opacity="0" offset="1"/></radialGradient></defs><polygon points="0 96 64 128 64 144 0 112" fill="#1c1c1c" stroke="#1c1c1c"/><polygon points="64 128 128 96 128 112 64 144" fill="#0a0a0a" stroke="#0a0a0a"/><polygon points="64 64 128 96 64 128 0 96" fill="#2b2b2b" stroke="#2b2b2b" stroke-linejoin="round"/><polygon points="64 64 128 96 64 128 0 96" fill="url(#b)"/><path d="m70 80q20-5 30 10t-15 20q-30 0-25-15t10-15" fill="#1a1a1a"/><ellipse cx="80" cy="95" rx="15" ry="8" fill="#141414"/><path d="m85 90v-5m2 6 1-5m-5 5-1-4m7 5 2-3" stroke="#b5ab9a" stroke-linecap="round" stroke-width=".8"/><circle cx="95" cy="90" r="1.5" fill="#f50" filter="url(#a)"><animate attributeName="cy" dur="6s" repeatCount="indefinite" values="90; 70; 90"/></circle><circle cx="50" cy="100" r="1" fill="#f70" filter="url(#a)"><animate attributeName="opacity" dur="3s" repeatCount="indefinite" values="0; 1; 0"/></circle><path d="m80 95q-5-15 10-30" fill="none" filter="url(#a)" opacity=".5" stroke="#a3a3a3" stroke-width="2.5"/></svg>