<svg viewBox="0 0 128 144" xmlns="http://www.w3.org/2000/svg"><defs><linearGradient id="c" x1="10%" x2="70%" y2="100%"><stop stop-color="#ccc4b2" offset="0"/><stop stop-color="#a8a090" offset=".5"/><stop stop-color="#544e44" offset="1"/></linearGradient><linearGradient id="d" x1="70%" x2="10%" y2="100%"><stop stop-color="#544e44" offset="0"/><stop stop-color="#1e1c16" offset="1"/></linearGradient><radialGradient id="b" cy="64%" r="53%"><stop stop-color="#222220" offset="0"/><stop stop-color="#0c0c0a" offset="1"/></radialGradient><filter id="a"><feDropShadow dx="1" dy="3" flood-opacity=".7" stdDeviation="2"/></filter></defs><polygon points="0 96 64 128 64 144 0 112" fill="#141414"/><polygon points="64 128 128 96 128 112 64 144" fill="#050505"/><polygon points="64 64 128 96 64 128 0 96" fill="url(#b)"/><path d="M64 64 0 96" opacity=".35" stroke="#222220"/><ellipse cx="66" cy="106" rx="36" ry="12" fill="#070707" opacity=".5"/><polygon points="44 112 66 96 48 48 28 92" fill="url(#d)" filter="url(#a)"/><polygon points="44 112 66 96 48 48" fill="url(#c)"/><path d="m48 48-4 64" stroke="#141210" stroke-width="1.1"/><polygon points="88 104 108 92 96 58 76 90" fill="#484038" filter="url(#a)"/><polygon points="88 104 108 92 96 58" fill="#c8c0ae"/><path d="m50 102q14-9 28-4" fill="none" filter="url(#a)" stroke="#a8a090" stroke-linecap="round" stroke-width="5"/><path d="m50 102q14-9 28-4" fill="none" stroke="#3e3830" stroke-linecap="round" stroke-width="2.5"/><path d="m46 66 2 6-2 6" fill="none" stroke="#0e0c08"/><circle cx="48" cy="48" r="3" fill="#e8e0cc" opacity=".8"/><circle cx="96" cy="58" r="2.5" fill="#ddd4c0" opacity=".75"/></svg>