<svg viewBox="0 0 128 144" xmlns="http://www.w3.org/2000/svg"><defs><linearGradient id="d" x1="10%" x2="70%" y2="100%"><stop stop-color="#d4ccba" offset="0"/><stop stop-color="#aca494" offset=".45"/><stop stop-color="#5c5448" offset="1"/></linearGradient><linearGradient id="b" x1="70%" x2="10%" y2="100%"><stop stop-color="#5c5448" offset="0"/><stop stop-color="#201e18" offset="1"/></linearGradient><radialGradient id="c" cy="65%" r="53%"><stop stop-color="#222220" offset="0"/><stop stop-color="#0c0c0a" offset="1"/></radialGradient><filter id="a"><feDropShadow dx="1" dy="3" flood-opacity=".7" stdDeviation="2.5"/></filter></defs><polygon points="0 96 64 128 64 144 0 112" fill="#141414"/><polygon points="64 128 128 96 128 112 64 144" fill="#060606"/><polygon points="64 64 128 96 64 128 0 96" fill="url(#c)"/><path d="M64 64 0 96" opacity=".4" stroke="#242422"/><ellipse cx="64" cy="106" rx="34" ry="12" fill="#080808" opacity=".55"/><polygon points="86 100 102 90 92 62 76 90" fill="#484038" filter="url(#a)"/><polygon points="86 100 102 90 92 62" fill="#ccc4b0"/><polygon points="40 100 58 88 44 56 28 86" fill="url(#b)" filter="url(#a)"/><polygon points="40 100 58 88 44 56" fill="#aca494"/><polygon points="64 114 86 98 64 44 44 98" fill="url(#b)" filter="url(#a)"/><polygon points="64 114 86 98 64 44" fill="url(#d)"/><path d="m64 44v70" stroke="#141210" stroke-width="1.3"/><path d="m58 72 2 4" stroke="#181614" stroke-width="1.1"/><path d="m42 70 2 5-2 5" fill="none" stroke="#0e0c08"/><circle cx="64" cy="44" r="3.8" fill="#f0e8d8"/><circle cx="44" cy="56" r="2.2" fill="#e4dcc8" opacity=".8"/><circle cx="92" cy="62" r="1.8" fill="#dcd4c0" opacity=".75"/></svg>