<svg viewBox="0 0 128 144" xmlns="http://www.w3.org/2000/svg"><defs><radialGradient id="d" cy="66%" r="40%"><stop stop-color="#262626" offset="0"/><stop stop-color="#141414" stop-opacity="0" offset="1"/></radialGradient><linearGradient id="a"><stop stop-color="#b5a996" offset="0"/><stop stop-color="#595246" offset="1"/></linearGradient><linearGradient id="b"><stop stop-color="#595246" offset="0"/><stop stop-color="#1f1c18" offset="1"/></linearGradient><filter id="c" x="-50%" y="-50%" width="200%" height="200%"><feGaussianBlur result="blur" stdDeviation="1.5"/><feComposite in="SourceGraphic" in2="blur"/></filter></defs><polygon points="0 96 64 128 64 144 0 112" fill="#141414" stroke="#141414"/><polygon points="64 128 128 96 128 112 64 144" fill="#050505" stroke="#050505"/><polygon points="64 64 128 96 64 128 0 96" fill="#141414" stroke="#141414" stroke-linejoin="round"/><polygon points="64 64 128 96 64 128 0 96" fill="url(#d)"/><polygon points="64 105 85 90 64 55 45 90" fill="url(#b)"/><polygon points="64 105 85 90 64 55" fill="url(#a)"/><path d="m60 65 3 5-5 2m10 3 2 5-4 2" fill="none" filter="url(#c)" stroke="#ff2a2a" stroke-width="1.5"><animate attributeName="opacity" dur="3s" repeatCount="indefinite" values="0.2; 1; 0.2"/></path><path d="m60 65 3 5-5 2m10 3 2 5-4 2" fill="none" opacity=".8" stroke="#fff" stroke-width=".3"><animate attributeName="opacity" dur="3s" repeatCount="indefinite" values="0; 0.9; 0"/></path><polygon points="40 85 50 75 30 60 25 80" fill="url(#b)"/><polygon points="40 85 50 75 30 60" fill="url(#a)"/></svg>