<svg viewBox="0 0 128 144" xmlns="http://www.w3.org/2000/svg"><defs><radialGradient id="c" cy="66%" r="40%"><stop stop-color="#262626" offset="0"/><stop stop-color="#141414" stop-opacity="0" offset="1"/></radialGradient><linearGradient id="a"><stop stop-color="#b5a996" offset="0"/><stop stop-color="#595246" offset="1"/></linearGradient><linearGradient id="b"><stop stop-color="#595246" offset="0"/><stop stop-color="#1f1c18" offset="1"/></linearGradient></defs><polygon points="0 96 64 128 64 144 0 112" fill="#141414" stroke="#141414"/><polygon points="64 128 128 96 128 112 64 144" fill="#050505" stroke="#050505"/><polygon points="64 64 128 96 64 128 0 96" fill="#141414" stroke="#141414" stroke-linejoin="round"/><polygon points="64 64 128 96 64 128 0 96" fill="url(#c)"/><polygon points="50 110 75 95 55 75 35 95" fill="url(#b)"/><polygon points="50 110 75 95 55 75" fill="url(#a)"/><polygon points="95 95 110 85 95 70 80 85" fill="url(#b)"/><polygon points="95 95 110 85 95 70" fill="url(#a)"/><path d="m55 75-5 15 8 10" fill="none" stroke="#141414" stroke-width="1.5"/></svg>