<svg viewBox="0 0 128 144" xmlns="http://www.w3.org/2000/svg"><defs><filter id="g" x="-40%" y="-40%" width="180%" height="180%"><feGaussianBlur result="b" stdDeviation="3"/><feMerge><feMergeNode in="b"/><feMergeNode in="SourceGraphic"/></feMerge></filter><filter id="e" x="-80%" y="-80%" width="360%" height="360%"><feGaussianBlur result="b" stdDeviation="2.5"/><feMerge><feMergeNode in="b"/><feMergeNode in="SourceGraphic"/></feMerge></filter><radialGradient id="b" cy="48%" r="52%"><stop stop-color="#d41c1c" offset="0"/><stop stop-color="#8e1010" offset=".48"/><stop stop-color="#3c0606" offset="1"/></radialGradient><radialGradient id="a" cy="60%" r="53%"><stop stop-color="#4c1e1e" offset="0"/><stop stop-color="#2c1010" offset="1"/></radialGradient></defs><polygon points="0 96 64 128 64 144 0 112" fill="#2a1414"/><polygon points="64 128 128 96 128 112 64 144" fill="#160909"/><polygon points="64 64 128 96 64 128 0 96" fill="url(#a)"/><path d="M64 64 0 96" opacity=".65" stroke="#5c2020" stroke-width="1.2"/><path d="m64 96q-18-9-36-18m36 18q18-9 36-18" fill="none" filter="url(#g)" stroke="#c91515" stroke-width="2.8"/><path d="m64 96q-18 10-36 18m36-18q18 10 36 18" fill="none" stroke="#9e0d0d" stroke-width="2.2"/><path d="m64 96v-28" fill="none" filter="url(#g)" stroke="#bc1010" stroke-width="1.8"/><path d="m42 96q0-22 22-22 24 0 24 22 0 24-24 24-22 0-22-24z" fill="url(#b)"/><path d="m48 87q8-5 16-3 10-2 14 4m-34 8q8-5 16-3 10-2 16 3" fill="none" opacity=".55" stroke="#b01010" stroke-width="1.2"/><circle cx="53" cy="88" r="7" fill="#ff4040" filter="url(#e)"/><circle cx="52" cy="87" r="4" fill="#060000"/><circle cx="51.3" cy="86.3" r="1.2" fill="#fff" opacity=".75"/><circle cx="78" cy="101" r="7.5" fill="#ff3030" filter="url(#e)"/><circle cx="77" cy="100" r="4.5" fill="#040000"/><circle cx="76.2" cy="99.2" r="1.4" fill="#fff" opacity=".68"/><circle cx="64" cy="114" r="5" fill="#ee2828" filter="url(#e)"/><circle cx="64" cy="114" r="2.8" fill="#040000"/></svg>