<svg xmlns="http://www.w3.org/2000/svg" viewBox="0 0 128 144">
  <defs>
    <filter id="flesh-glow" x="-20%" y="-20%" width="140%" height="140%">
      <feGaussianBlur stdDeviation="3" result="blur" /><feComposite in="SourceGraphic" in2="blur" operator="over" />
    </filter>
    <radialGradient id="mass-grad" cx="50%" cy="50%" r="50%">
      <stop offset="0%" stop-color="#b80f0f" /><stop offset="70%" stop-color="#6e1313" /><stop offset="100%" stop-color="#2b0505" />
    </radialGradient>
  </defs>
  <polygon points="0,96 64,128 64,144 0,112" fill="#2a1414" stroke="#2a1414" stroke-width="1" />
  <polygon points="64,128 128,96 128,112 64,144" fill="#170909" stroke="#170909" stroke-width="1" />
  <polygon points="64,64 128,96 64,128 0,96" fill="#3d1c1c" stroke="#3d1c1c" stroke-width="1" stroke-linejoin="round" />

  <!-- FIXIERTE ANSCHLÜSSE (NW, NE, SW, SE) -->
  <path d="M 64,96 Q 48,88 32,80" fill="none" stroke="#b80f0f" stroke-width="2.5" filter="url(#flesh-glow)" />
  <path d="M 64,96 Q 80,88 96,80" fill="none" stroke="#d61a1a" stroke-width="2.5" filter="url(#flesh-glow)" />
  <path d="M 64,96 Q 48,104 32,112" fill="none" stroke="#b80f0f" stroke-width="2" />
  <path d="M 64,96 Q 80,104 96,112" fill="none" stroke="#9c1c1c" stroke-width="2" />

  <!-- V2: Hohles Nest (Ring-Form) statt solider Masse -->
  <path d="M 40,96 Q 40,75 64,75 Q 88,75 88,96 Q 88,117 64,117 Q 40,117 40,96 Z M 55,96 Q 55,105 64,105 Q 73,105 73,96 Q 73,87 64,87 Q 55,87 55,96 Z" fill="url(#mass-grad)" fill-rule="evenodd" />
  <!-- Viele kleine Eier/Kerne im Inneren -->
  <circle cx="64" cy="96" r="3" fill="#ff7a7a" />
  <circle cx="58" cy="94" r="2" fill="#ff4545" />
  <circle cx="70" cy="98" r="2.5" fill="#d61a1a" />
</svg>
