<svg viewBox="0 0 128 144" xmlns="http://www.w3.org/2000/svg"><defs><filter id="a" x="-20%" y="-20%" width="140%" height="140%"><feGaussianBlur result="blur" stdDeviation="3"/><feComposite in="SourceGraphic" in2="blur"/></filter><radialGradient id="b"><stop stop-color="#b80f0f" offset="0"/><stop stop-color="#6e1313" offset=".7"/><stop stop-color="#2b0505" offset="1"/></radialGradient></defs><polygon points="0 96 64 128 64 144 0 112" fill="#2a1414" stroke="#2a1414"/><polygon points="64 128 128 96 128 112 64 144" fill="#170909" stroke="#170909"/><polygon points="64 64 128 96 64 128 0 96" fill="#3d1c1c" stroke="#3d1c1c" stroke-linejoin="round"/><path d="m64 96q-16-8-32-16" fill="none" filter="url(#a)" stroke="#b80f0f" stroke-width="2.5"/><path d="m64 96q16-8 32-16" fill="none" filter="url(#a)" stroke="#d61a1a" stroke-width="2.5"/><path d="m64 96q-16 8-32 16" fill="none" stroke="#b80f0f" stroke-width="2"/><path d="m64 96q16 8 32 16" fill="none" stroke="#9c1c1c" stroke-width="2"/><path d="m40 96q0-21 24-21t24 21-24 21-24-21zm15 0q0 9 9 9t9-9-9-9-9 9z" fill="url(#b)" fill-rule="evenodd"/><ellipse cx="64" cy="96" rx="8" ry="4" fill="#fff"/><circle cx="64" cy="96" r="3" fill="#8a0303"/><circle cx="64" cy="96" r="1.5"><animate attributeName="r" dur="3s" repeatCount="indefinite" values="1.2; 2; 1.2"/></circle></svg>