<svg viewBox="0 0 128 144" xmlns="http://www.w3.org/2000/svg"><defs><filter id="g" x="-40%" y="-40%" width="180%" height="180%"><feGaussianBlur result="b" stdDeviation="3"/><feMerge><feMergeNode in="b"/><feMergeNode in="SourceGraphic"/></feMerge></filter><filter id="e" x="-80%" y="-80%" width="360%" height="360%"><feGaussianBlur result="b" stdDeviation="2.5"/><feMerge><feMergeNode in="b"/><feMergeNode in="SourceGraphic"/></feMerge></filter><radialGradient id="b"><stop stop-color="#dc2020" offset="0"/><stop stop-color="#921212" offset=".42"/><stop stop-color="#3e0808" offset="1"/></radialGradient><radialGradient id="a" cy="60%" r="53%"><stop stop-color="#481818" offset="0"/><stop stop-color="#2a0f0f" offset="1"/></radialGradient></defs><polygon points="0 96 64 128 64 144 0 112" fill="#2c1414"/><polygon points="64 128 128 96 128 112 64 144" fill="#160808"/><polygon points="64 64 128 96 64 128 0 96" fill="url(#a)"/><path d="M64 64 0 96" opacity=".6" stroke="#5a2020" stroke-width="1.2"/><path d="m64 96q-22-12-40-20m40 20q22-12 40-18" fill="none" filter="url(#g)" stroke="#ce1616" stroke-width="2.8"/><path d="m64 96q-22 12-38 20m38-20q22 12 38 20" fill="none" stroke="#a80c0c" stroke-width="2.2"/><path d="m36 96q0-24 28-24t28 24q0 26-28 26t-28-26zm14 0q0 12 14 12t14-12-14-12-14 12z" fill="url(#b)" fill-rule="evenodd"/><circle cx="64" cy="96" r="9" fill="#e02020" filter="url(#g)" opacity=".9"/><circle cx="64" cy="96" r="4" fill="#0e0000"/><circle cx="46" cy="86" r="7" fill="#ff3838" filter="url(#e)"/><circle cx="45" cy="85" r="4" fill="#060000"/><circle cx="44.3" cy="84.3" r="1.2" fill="#fff" opacity=".72"/><circle cx="82" cy="86" r="6.5" fill="#ee2828" filter="url(#e)"/><circle cx="81" cy="85" r="3.8" fill="#040000"/><circle cx="64" cy="110" r="5.5" fill="#ff4040" filter="url(#e)"/><circle cx="64" cy="110" r="3" fill="#060000"/></svg>