<svg viewBox="0 0 128 144" xmlns="http://www.w3.org/2000/svg"><defs><filter id="a" x="-20%" y="-20%" width="140%" height="140%"><feGaussianBlur result="blur" stdDeviation="3"/><feComposite in="SourceGraphic" in2="blur"/></filter><radialGradient id="b"><stop stop-color="#b80f0f" offset="0"/><stop stop-color="#6e1313" offset=".7"/><stop stop-color="#2b0505" offset="1"/></radialGradient></defs><polygon points="0 96 64 128 64 144 0 112" fill="#2a1414" stroke="#2a1414"/><polygon points="64 128 128 96 128 112 64 144" fill="#170909" stroke="#170909"/><polygon points="64 64 128 96 64 128 0 96" fill="#3d1c1c" stroke="#3d1c1c" stroke-linejoin="round"/><path d="m64 96q-16-8-32-16" fill="none" filter="url(#a)" stroke="#b80f0f" stroke-width="2.5"/><path d="m64 96q16-8 32-16" fill="none" filter="url(#a)" stroke="#d61a1a" stroke-width="2.5"/><path d="m64 96q-16 8-32 16" fill="none" stroke="#b80f0f" stroke-width="2"/><path d="m64 96q16 8 32 16" fill="none" stroke="#9c1c1c" stroke-width="2"/><path d="m45 96q0-14 19-14 21 0 21 14 0 19-21 19-19 0-19-19z" fill="url(#b)"><animate attributeName="opacity" dur="4s" repeatCount="indefinite" values="0.8; 1; 0.8"/></path><circle cx="52" cy="90" r="4" fill="#ff4545" filter="url(#a)"><animate attributeName="r" dur="2s" repeatCount="indefinite" values="3.5; 4.5; 3.5"/></circle><circle cx="75" cy="100" r="4.5" fill="#ff4545" filter="url(#a)"><animate attributeName="r" dur="2.3s" repeatCount="indefinite" values="4; 5; 4"/></circle></svg>