<svg viewBox="0 0 128 144" xmlns="http://www.w3.org/2000/svg"><defs><filter id="g" x="-35%" y="-35%" width="170%" height="170%"><feGaussianBlur result="b" stdDeviation="5.5"/><feMerge><feMergeNode in="b"/><feMergeNode in="SourceGraphic"/></feMerge></filter><radialGradient id="c" cx="45%" cy="48%" r="54%"><stop stop-color="#eae260" offset="0"/><stop stop-color="#c4bc32" offset=".38"/><stop stop-color="#8a8220" offset=".8"/><stop stop-color="#4c4812" offset="1"/></radialGradient><radialGradient id="a"><stop stop-color="#100c00" offset="0"/><stop stop-color="#2e2800" offset=".45"/><stop stop-color="#807000" stop-opacity="0" offset="1"/></radialGradient><radialGradient id="b" cy="60%" r="53%"><stop stop-color="#501e1e" offset="0"/><stop stop-color="#2c1010" offset="1"/></radialGradient></defs><polygon points="0 96 64 128 64 144 0 112" fill="#2c1414"/><polygon points="64 128 128 96 128 112 64 144" fill="#140808"/><polygon points="64 64 128 96 64 128 0 96" fill="url(#b)"/><path d="M64 64 0 96" opacity=".55" stroke="#5a2020" stroke-width="1.2"/><path d="m64 70q38 2 52 26-14 24-52 28-44-4-54-28 10-26 54-26z" fill="#281010"/><path d="m64 74q34 2 48 22-14 20-48 24-40-4-48-24 8-22 48-22z" fill="url(#c)" filter="url(#g)" opacity=".88"/><ellipse cx="64" cy="96" rx="24" ry="12" fill="url(#a)"/><path d="m64 89q8 2 8 7t-8 5-8-5 8-7" fill="none" opacity=".5" stroke="#ece25a" stroke-width=".9"/><path d="m64 83q14 5 14 13 0 11-14 14-14-3-14-14 0-8 14-13" fill="none" opacity=".3" stroke="#ccc030" stroke-width=".7"/><ellipse cx="28" cy="98" rx="9" ry="4.5" fill="#5e0c0c" opacity=".68"/><path d="m26 88q18-6 36 0" fill="none" opacity=".52" stroke="#eae060" stroke-width="1.1"/></svg>