<svg viewBox="0 0 128 144" xmlns="http://www.w3.org/2000/svg"><defs><filter id="a" x="-20%" y="-20%" width="140%" height="140%"><feGaussianBlur result="blur" stdDeviation="4"/><feComposite in="SourceGraphic" in2="blur"/></filter><linearGradient id="b" y2="100%"><stop stop-color="#c4ba3d" offset="0"/><stop stop-color="#827a1c" offset="1"/></linearGradient></defs><polygon points="0 96 64 128 64 144 0 112" fill="#2b1414" stroke="#2b1414"/><polygon points="64 128 128 96 128 112 64 144" fill="#140909" stroke="#140909"/><polygon points="64 64 128 96 64 128 0 96" fill="#4a2121" stroke="#4a2121" stroke-linejoin="round"/><path d="m64 72q36 3 51 24-15 19-51 24-44-5-52-24 8-21 52-24z" fill="#2e1111"/><path d="m64 80q16-5 21 10t-15 15q-25 0-25-15 0-5 19-10z" fill="#0d0505" filter="url(#a)" opacity=".5"><animate attributeName="opacity" dur="2s" repeatCount="indefinite" values="0.3; 0.6; 0.3"/></path><path d="m64 76q31 2 44 20-13 16-44 20-39-4-46-20 7-18 46-20z" fill="url(#b)" filter="url(#a)" opacity=".85"/><path d="m55 90q9-5 20 2 5 8-11 13-16-5-9-15z" fill="#4a0909"/></svg>