<svg xmlns="http://www.w3.org/2000/svg" viewBox="0 0 128 144">
  <defs>
    <filter id="lake-glow" x="-20%" y="-20%" width="140%" height="140%"><feGaussianBlur stdDeviation="4" result="blur" /><feComposite in="SourceGraphic" in2="blur" operator="over" /></filter>
    <linearGradient id="fluid-grad" x1="0%" y1="0%" x2="100%" y2="100%"><stop offset="0%" stop-color="#c4ba3d" /><stop offset="100%" stop-color="#827a1c" /></linearGradient>
  </defs>
  <polygon points="0,96 64,128 64,144 0,112" fill="#2b1414" stroke="#2b1414" stroke-width="1" />
  <polygon points="64,128 128,96 128,112 64,144" fill="#140909" stroke="#140909" stroke-width="1" />
  <polygon points="64,64 128,96 64,128 0,96" fill="#4a2121" stroke="#4a2121" stroke-width="1" stroke-linejoin="round" />
  <!-- V1: Offener See -->
  <path d="M 64,72 Q 100,75 115,96 Q 100,115 64,120 Q 20,115 12,96 Q 20,75 64,72 Z" fill="#2e1111" />
  <path d="M 64,76 Q 95,78 108,96 Q 95,112 64,116 Q 25,112 18,96 Q 25,78 64,76 Z" fill="url(#fluid-grad)" filter="url(#lake-glow)" opacity="0.85" />
  <circle cx="35" cy="98" r="4.5" fill="#6e1313" /><circle cx="35" cy="98" r="1.5" fill="#000000" />
  <circle cx="75" cy="85" r="3" fill="#8a2020" />
  <path d="M 45,90 Q 64,85 85,95" fill="none" stroke="#e6df73" stroke-width="0.75" opacity="0.6" />
</svg>
