<svg viewBox="0 0 128 144" xmlns="http://www.w3.org/2000/svg"><defs><filter id="g" x="-35%" y="-35%" width="170%" height="170%"><feGaussianBlur result="b" stdDeviation="5"/><feMerge><feMergeNode in="b"/><feMergeNode in="SourceGraphic"/></feMerge></filter><linearGradient id="c" x1="10%" x2="90%" y1="10%" y2="90%"><stop stop-color="#dcd448" offset="0"/><stop stop-color="#bcb42e" offset=".4"/><stop stop-color="#7e7818" offset="1"/></linearGradient><radialGradient id="b" cx="40%" cy="40%" r="55%"><stop stop-color="#f0e85a" stop-opacity=".7" offset="0"/><stop stop-color="#f0e85a" stop-opacity="0" offset="1"/></radialGradient><radialGradient id="a" cy="60%" r="53%"><stop stop-color="#541e1e" offset="0"/><stop stop-color="#2e1010" offset="1"/></radialGradient></defs><polygon points="0 96 64 128 64 144 0 112" fill="#2e1414"/><polygon points="64 128 128 96 128 112 64 144" fill="#160909"/><polygon points="64 64 128 96 64 128 0 96" fill="url(#a)"/><path d="M64 64 0 96" opacity=".6" stroke="#5e2020" stroke-width="1.2"/><path d="m64 70q40 2 54 26-14 24-54 28-46-4-56-28 10-26 56-26z" fill="#2a1010"/><path d="m64 74q36 2 50 22-14 20-50 24-42-4-50-24 8-22 50-22z" fill="url(#c)" filter="url(#g)" opacity=".9"/><ellipse cx="48" cy="88" rx="18" ry="7" fill="url(#b)"/><path d="m32 88q18-6 38 0m8 18q14-5 32 0" fill="none" opacity=".52" stroke="#e8e05e" stroke-width="1.1"/><ellipse cx="38" cy="102" rx="8" ry="4" fill="#5c0a0a" opacity=".72"/><circle cx="34" cy="100" r="6" fill="#780f0f"/><circle cx="33" cy="99" r="3" fill="#020000"/><circle cx="32.4" cy="98.4" r=".9" fill="#fff" opacity=".8"/><circle cx="80" cy="84" r="5" fill="#8a1818"/><circle cx="79" cy="83" r="2.5" fill="#020000"/><circle cx="78.4" cy="82.4" r=".8" fill="#fff" opacity=".7"/></svg>