<svg viewBox="0 0 128 144" xmlns="http://www.w3.org/2000/svg"><defs><linearGradient id="c" x1="15%" x2="85%" y2="100%"><stop stop-color="#e4dccb" offset="0"/><stop stop-color="#aca49a" offset=".5"/><stop stop-color="#6c6459" offset="1"/></linearGradient><linearGradient id="d" x1="85%" x2="15%" y2="100%"><stop stop-color="#6c6459" offset="0"/><stop stop-color="#2a261e" offset="1"/></linearGradient><radialGradient id="b" cy="65%" r="52%"><stop stop-color="#282828" offset="0"/><stop stop-color="#101010" offset="1"/></radialGradient><filter id="a"><feDropShadow dx="1" dy="3" flood-opacity=".6" stdDeviation="2"/></filter></defs><polygon points="0 96 64 128 64 144 0 112" fill="#1c1c1c"/><polygon points="64 128 128 96 128 112 64 144" fill="#0a0a0a"/><polygon points="64 64 128 96 64 128 0 96" fill="url(#b)"/><path d="m64 64-64 32" fill="none" opacity=".4" stroke="#282828"/><ellipse cx="64" cy="102" rx="44" ry="16" fill="#200808" opacity=".5"/><path d="m20 108q6-60 26-68-12 22-20 68" fill="url(#c)" filter="url(#a)" stroke="#0c0c0c" stroke-width="1.5"/><path d="m20 108q6-60 26-68" fill="url(#d)"/><path d="m104 100q-6-54-22-62 10 24 18 62" fill="#d0c8b4" filter="url(#a)" stroke="#0c0c0c" stroke-width="1.5"/><path d="m104 100q-6-54-22-62" fill="#a0988c"/><path d="m48 108q6-40 16-50 10 10 16 50" fill="#bab2a0" stroke="#0c0c0c" stroke-width="1.1"/><path d="m48 108q6-40 16-50" fill="#888078"/><path d="m28 88q2-18 12-32" fill="none" opacity=".8" stroke="#6e1313"/><path d="m96 84q-2-18-10-34" fill="none" opacity=".7" stroke="#5a1010" stroke-width=".9"/><circle cx="46" cy="40" r="3" fill="#ece4d4"/><circle cx="82" cy="38" r="3" fill="#e4dcc8"/><circle cx="64" cy="58" r="2" fill="#ddd4c2"/></svg>