<svg viewBox="0 0 128 144" xmlns="http://www.w3.org/2000/svg"><defs><linearGradient id="b" x2="0" y2="1"><stop stop-color="#202020" offset="0"/><stop stop-color="#0e0e0e" offset="1"/></linearGradient><radialGradient id="c" cy="65%" r="52%"><stop stop-color="#2c2c2c" offset="0"/><stop stop-color="#111" offset="1"/></radialGradient><linearGradient id="d" x1="15%" x2="85%" y2="100%"><stop stop-color="#ece4d2" offset="0"/><stop stop-color="#bab29e" offset=".45"/><stop stop-color="#7c7468" offset="1"/></linearGradient><linearGradient id="e" x1="85%" x2="15%" y2="100%"><stop stop-color="#7c7468" offset="0"/><stop stop-color="#2e2a22" offset="1"/></linearGradient><filter id="a"><feDropShadow dx="1" dy="3" flood-opacity=".65" stdDeviation="2.5"/></filter></defs><polygon points="0 96 64 128 64 144 0 112" fill="url(#b)"/><polygon points="64 128 128 96 128 112 64 144" fill="#0c0c0c"/><polygon points="64 64 128 96 64 128 0 96" fill="url(#c)"/><path d="m64 64-64 32" fill="none" opacity=".45" stroke="#2e2e2e" stroke-width="1.2"/><ellipse cx="62" cy="102" rx="40" ry="15" fill="#1e0606" opacity=".55"/><path d="m14 110q6-54 50-64-26 22-36 64" fill="url(#d)" filter="url(#a)" stroke="#0c0c0c" stroke-width="1.6"/><path d="m14 110q6-54 50-64" fill="url(#e)"/><path d="m114 98q-6-46-50-52 24 22 34 52" fill="#ccc4b0" filter="url(#a)" stroke="#0c0c0c" stroke-width="1.6"/><path d="m114 98q-6-46-50-52" fill="#aaa298"/><path d="m26 94q4-30 38-40-18 18-28 40" fill="#dcd4c0" stroke="#0c0c0c" stroke-width="1.1"/><path d="m26 94q4-30 38-40" fill="#b4ac9a"/><path d="m36 92q2-20 20-38" fill="none" opacity=".75" stroke="#6e1313" stroke-width="1.1"/><path d="m98 90q-3-20-24-38" fill="none" opacity=".65" stroke="#5a1010" stroke-width=".9"/><circle cx="64" cy="46" r="3.5" fill="#f4ece0"/><circle cx="64" cy="46" r="1.5" fill="#fff" opacity=".4"/></svg>