<svg viewBox="0 0 128 144" xmlns="http://www.w3.org/2000/svg"><defs><radialGradient id="b" cy="66%" r="40%"><stop stop-color="#333" offset="0"/><stop stop-color="#1a1a1a" stop-opacity="0" offset="1"/></radialGradient><linearGradient id="a" y2="100%"><stop stop-color="#e3dac9" offset="0"/><stop stop-color="#8c8579" offset="1"/></linearGradient></defs><polygon points="0 96 64 128 64 144 0 112" fill="#1c1c1c" stroke="#1c1c1c"/><polygon points="64 128 128 96 128 112 64 144" fill="#0d0d0d" stroke="#0d0d0d"/><polygon points="64 64 128 96 64 128 0 96" fill="#1a1a1a" stroke="#1a1a1a" stroke-linejoin="round"/><polygon points="64 64 128 96 64 128 0 96" fill="url(#b)"/><path d="m28 88q7-26 34-30-17 10-24 30" fill="#a1998b" stroke="#0f0f0f" stroke-width="1.5"/><path d="m96 82q-3-24-30-27 17 10 20 27" fill="#8c8579" stroke="#0f0f0f" stroke-width="1.5"/><path d="m20 105q5-35 44-50-24 20-32 50" fill="url(#a)" stroke="#0f0f0f" stroke-width="1.5"/><path d="m108 95q-5-35-44-47 24 20 32 47" fill="#b5ab9a" stroke="#0f0f0f" stroke-width="1.5"/><path d="m40 108 12-12" stroke="#999" stroke-linecap="square" stroke-width="1.2"/></svg>