<svg xmlns="http://www.w3.org/2000/svg" viewBox="0 0 64 32" width="64" height="32">
  <defs>
    <linearGradient id="g" x1="0" y1="0" x2="64" y2="32" gradientUnits="userSpaceOnUse">
      <stop offset="0%" stop-color="#363854"/>
      <stop offset="100%" stop-color="#141620"/>
    </linearGradient>
    <clipPath id="d">
      <polygon points="32,0 64,16 32,32 0,16"/>
    </clipPath>
  </defs>
  <polygon points="32,0 64,16 32,32 0,16" fill="url(#g)"/>
  <g clip-path="url(#d)">
    <polygon points="28,4 46,10 40,20 22,14" fill="#3E4262" opacity="0.55"/>
    <polygon points="14,18 28,14 24,26 10,22" fill="#2A2C44" opacity="0.5"/>
    <polygon points="46,12 60,18 54,26 40,20" fill="#2A2C44" opacity="0.45"/>
    <polygon points="32,0 14,10 22,14 40,6" fill="#484A68" opacity="0.28"/>
    <line x1="30" y1="6" x2="20" y2="20" stroke="#4A4C60" stroke-width="1" opacity="0.75"/>
    <line x1="38" y1="8" x2="52" y2="22" stroke="#3E4060" stroke-width="0.8" opacity="0.65"/>
    <line x1="16" y1="14" x2="30" y2="20" stroke="#4A4C60" stroke-width="0.8" opacity="0.65"/>
  </g>
</svg>
