<svg xmlns="http://www.w3.org/2000/svg" viewBox="0 0 128 144">
  <defs>
    <radialGradient id="ground-center" cx="50%" cy="66%" r="40%"><stop offset="0%" stop-color="#333333" /><stop offset="100%" stop-color="#1a1a1a" stop-opacity="0" /></radialGradient>
    <linearGradient id="rib-color" x1="0%" y1="0%" x2="100%" y2="100%"><stop offset="0%" stop-color="#e3dac9" /><stop offset="100%" stop-color="#8c8579" /></linearGradient>
  </defs>
  <polygon points="0,96 64,128 64,144 0,112" fill="#1c1c1c" stroke="#1c1c1c" stroke-width="1" />
  <polygon points="64,128 128,96 128,112 64,144" fill="#0d0d0d" stroke="#0d0d0d" stroke-width="1" />
  <polygon points="64,64 128,96 64,128 0,96" fill="#1a1a1a" stroke="#1a1a1a" stroke-width="1" stroke-linejoin="round" />
  <polygon points="64,64 128,96 64,128 0,96" fill="url(#ground-center)" />
  <!-- V1: Mehrere kleine Rippen -->
  <ellipse cx="60" cy="98" rx="40" ry="16" fill="#2b0a0a" transform="rotate(-5, 60, 98)" />
  <path d="M 28,88 Q 35,62 62,58 Q 45,68 38,88" fill="#a1998b" stroke="#0f0f0f" stroke-width="1.5" />
  <path d="M 96,82 Q 93,58 66,55 Q 83,65 86,82" fill="#8c8579" stroke="#0f0f0f" stroke-width="1.5" />
  <path d="M 20,105 Q 25,70 64,55 Q 40,75 32,105" fill="url(#rib-color)" stroke="#0f0f0f" stroke-width="1.5" />
  <path d="M 108,95 Q 103,60 64,48 Q 88,68 96,95" fill="#b5ab9a" stroke="#0f0f0f" stroke-width="1.5" />
  <path d="M 32,82 L 32,88" stroke="#6e1313" stroke-width="1.5" />
  <path d="M 50,90 L 55,88 L 52,92 Z" fill="#8c8579" />
</svg>
