<svg xmlns="http://www.w3.org/2000/svg" viewBox="0 0 128 144">
  <defs>
    <radialGradient id="ground-center" cx="50%" cy="66%" r="40%"><stop offset="0%" stop-color="#333333" /><stop offset="100%" stop-color="#1a1a1a" stop-opacity="0" /></radialGradient>
    <linearGradient id="rib-color" x1="0%" y1="0%" x2="100%" y2="100%"><stop offset="0%" stop-color="#e3dac9" /><stop offset="100%" stop-color="#8c8579" /></linearGradient>
  </defs>
  <polygon points="0,96 64,128 64,144 0,112" fill="#1c1c1c" stroke="#1c1c1c" stroke-width="1" />
  <polygon points="64,128 128,96 128,112 64,144" fill="#0d0d0d" stroke="#0d0d0d" stroke-width="1" />
  <polygon points="64,64 128,96 64,128 0,96" fill="#1a1a1a" stroke="#1a1a1a" stroke-width="1" stroke-linejoin="round" />
  <polygon points="64,64 128,96 64,128 0,96" fill="url(#ground-center)" />
  <!-- V2: Eine massive, zerbrochene Hauptrippe -->
  <ellipse cx="64" cy="96" rx="45" ry="18" fill="#2b0a0a" />
  <path d="M 15,100 Q 30,50 64,45 Q 40,65 30,105 Z" fill="url(#rib-color)" stroke="#0f0f0f" stroke-width="1.5" />
  <!-- Bruchstelle / Splitter in der Mitte -->
  <path d="M 64,45 Q 85,50 110,90 Q 90,65 75,55 Z" fill="#b5ab9a" stroke="#0f0f0f" stroke-width="1.5" />
  <path d="M 64,45 L 68,55 L 60,60" fill="none" stroke="#0f0f0f" stroke-width="1.5" />
  <path d="M 64,45 L 64,65" stroke="#8a0303" stroke-width="2" />
  <path d="M 75,55 L 75,70" stroke="#6e1313" stroke-width="1.5" />
  <polygon points="64,80 68,78 66,84" fill="#a1998b" />
  <polygon points="72,85 76,82 74,88" fill="#8c8579" />
</svg>
