<svg viewBox="0 0 128 144" xmlns="http://www.w3.org/2000/svg"><defs><filter id="a" x="-20%" y="-20%" width="140%" height="140%"><feGaussianBlur result="blur" stdDeviation="2"/><feComposite in="SourceGraphic" in2="blur"/></filter></defs><polygon points="0 96 64 128 64 144 0 112" fill="#2a1414" stroke="#2a1414"/><polygon points="64 128 128 96 128 112 64 144" fill="#170909" stroke="#170909"/><polygon points="64 64 128 96 64 128 0 96" fill="#3d1c1c" stroke="#3d1c1c" stroke-linejoin="round"/><path d="m16 104q24-19 48-4 16 0 48-12l-32-16q-20-7-40 13-16 5-24 19z" fill="#2b0f0f"/><path d="m32 112q32-2 32-16t32-16" fill="none" filter="url(#a)" opacity=".8" stroke="#b80f0f" stroke-width="2.5"><animate attributeName="opacity" dur="1.5s" repeatCount="indefinite" values="0.4; 1; 0.4"/></path><path d="m32 112q32-2 32-16t32-16" fill="none" filter="url(#a)" opacity=".9" stroke="#ff2a2a"/></svg>