<svg xmlns="http://www.w3.org/2000/svg" viewBox="0 0 128 144">
  <defs>
    <filter id="blood-glow" x="-20%" y="-20%" width="140%" height="140%"><feGaussianBlur stdDeviation="2" result="blur" /><feComposite in="SourceGraphic" in2="blur" operator="over" /></filter>
  </defs>
  <polygon points="0,96 64,128 64,144 0,112" fill="#2a1414" stroke="#2a1414" stroke-width="1" />
  <polygon points="64,128 128,96 128,112 64,144" fill="#170909" stroke="#170909" stroke-width="1" />
  <polygon points="64,64 128,96 64,128 0,96" fill="#3d1c1c" stroke="#3d1c1c" stroke-width="1" stroke-linejoin="round" />

  <!-- FIXIERTE ANSCHLÜSSE: SW(32,112) zu NE(96,80) -->
  <!-- V1: Geraderer Pflaster-Pfad -->
  <polygon points="16,104 80,72 112,88 48,120" fill="#2b0f0f" />
  <path d="M 32,96 L 40,92 L 45,96 L 37,100 Z" fill="#a1998b" />
  <path d="M 50,87 L 60,82 L 62,86 L 52,91 Z" fill="#b5ab9a" />
  <path d="M 75,74 L 82,70 L 85,74 L 78,78 Z" fill="#8c8579" />
  <path d="M 64,100 L 74,95 L 77,100 L 67,105 Z" fill="#c4bba7" />
  <!-- Randsteine -->
  <polygon points="30,88 32,86 34,89 31,90" fill="#756f65" />
  <polygon points="85,65 88,62 90,66" fill="#756f65" />

  <path d="M 32,112 L 96,80" fill="none" stroke="#b80f0f" stroke-width="2.5" filter="url(#blood-glow)" opacity="0.8" />
  <path d="M 32,112 L 96,80" fill="none" stroke="#ff2a2a" stroke-width="1" filter="url(#blood-glow)" opacity="0.9" />
</svg>
