<svg viewBox="0 0 128 144" xmlns="http://www.w3.org/2000/svg"><defs><filter id="g" x="-20%" y="-20%" width="140%" height="140%"><feGaussianBlur result="b" stdDeviation="2"/><feMerge><feMergeNode in="b"/><feMergeNode in="SourceGraphic"/></feMerge></filter><linearGradient id="a" x2="0" y2="1"><stop stop-color="#341414" offset="0"/><stop stop-color="#1a0808" offset="1"/></linearGradient><radialGradient id="b" cy="60%" r="52%"><stop stop-color="#481e1e" offset="0"/><stop stop-color="#2e1212" offset="1"/></radialGradient></defs><polygon points="0 96 64 128 64 144 0 112" fill="url(#a)"/><polygon points="64 128 128 96 128 112 64 144" fill="#170909"/><polygon points="64 64 128 96 64 128 0 96" fill="url(#b)"/><path d="M64 64 0 96" opacity=".6" stroke="#5c2222" stroke-width="1.2"/><polygon points="12 108 78 74 114 90 48 124" fill="#2c1010"/><polygon points="28 100 36 96 38 101 30 105" fill="#aca49a" stroke="#0a0808" stroke-width=".5"/><polygon points="47 91 55 87 57 92 49 96" fill="#bab2a4"/><polygon points="65 82 74 78 76 83 67 87" fill="#9e968e"/><polygon points="70 102 78 98 80 103 72 107" fill="#c4bcb0"/><polygon points="88 87 95 83 97 88 90 92" fill="#aca4a0"/><circle cx="36" cy="107" r="1.8" fill="#888278"/><circle cx="60" cy="90" r="1.4" fill="#a09890"/><path d="m28 114 70-34" fill="none" filter="url(#g)" opacity=".72" stroke="#8a0303" stroke-width="3.5"/><path d="m28 114 70-34" fill="none" opacity=".88" stroke="#ff2a2a" stroke-width="1.4"/></svg>