<svg viewBox="0 0 128 144" xmlns="http://www.w3.org/2000/svg"><defs><filter id="a" x="-40%" y="-40%" width="180%" height="180%"><feGaussianBlur result="b" stdDeviation="3.5"/><feMerge><feMergeNode in="b"/><feMergeNode in="SourceGraphic"/></feMerge></filter><radialGradient id="c" cx="52%" cy="57%" r="54%"><stop stop-color="#4c1e1e" offset="0"/><stop stop-color="#3c1616" offset=".5"/><stop stop-color="#281010" offset="1"/></radialGradient><radialGradient id="b"><stop stop-color="#f60" offset="0"/><stop stop-color="#c20" offset=".38"/><stop stop-color="#1e0808" stop-opacity="0" offset="1"/></radialGradient></defs><polygon points="0 96 64 128 64 144 0 112" fill="#2e1212"/><polygon points="64 128 128 96 128 112 64 144" fill="#160808"/><polygon points="64 64 128 96 64 128 0 96" fill="url(#c)"/><path d="m64 64-64 32" fill="none" opacity=".6" stroke="#5c2020"/><path class="als" d="m64 96-32-16" fill="none" filter="url(#a)" opacity=".65" stroke="#cc1a00" stroke-width=".9"/><path class="als" d="m64 96 32-16" fill="none" filter="url(#a)" opacity=".65" stroke="#d20" stroke-width=".9"/><path d="m64 96-34 16" fill="none" stroke="#120505" stroke-width="1.5"/><path d="m64 96 34 16" fill="none" stroke="#120505" stroke-width="1.5"/><ellipse class="al" cx="64" cy="96" rx="24" ry="12" fill="url(#b)" opacity=".72"/><ellipse class="al" cx="64" cy="96" rx="11" ry="5.5" fill="#f30" filter="url(#a)" opacity=".9"/><ellipse cx="64" cy="96" rx="4.5" ry="2.2" fill="#fa4" opacity=".9"/><polygon points="20 104 28 100 30 106 22 110" fill="#2c1212" stroke="#180808" stroke-width=".5"/><polygon points="94 78 102 74 104 80 96 84" fill="#301414"/></svg>