<svg viewBox="0 0 128 144" xmlns="http://www.w3.org/2000/svg"><defs><filter id="a" x="-20%" y="-20%" width="140%" height="140%"><feGaussianBlur result="blur" stdDeviation="2"/><feComposite in="SourceGraphic" in2="blur"/></filter></defs><polygon points="0 96 64 128 64 144 0 112" fill="#2a1414" stroke="#2a1414"/><polygon points="64 128 128 96 128 112 64 144" fill="#170909" stroke="#170909"/><polygon points="64 64 128 96 64 128 0 96" fill="#3d1c1c" stroke="#3d1c1c" stroke-linejoin="round"/><polygon points="16 104 80 72 112 88 48 120" fill="#2b0f0f"/><path d="m32 96 8-4 5 4-8 4z" fill="#a1998b"/><path d="m50 87 10-5 2 4-10 5z" fill="#b5ab9a"/><path d="m32 112 64-32" fill="none" filter="url(#a)" opacity=".8" stroke="#b80f0f" stroke-width="2.5"><animate attributeName="opacity" dur="1.5s" repeatCount="indefinite" values="0.4; 1; 0.4"/></path><path d="m32 112 64-32" fill="none" filter="url(#a)" opacity=".9" stroke="#ff2a2a"/></svg>