<svg viewBox="0 0 128 144" xmlns="http://www.w3.org/2000/svg"><defs><filter id="a" x="-40%" y="-40%" width="180%" height="180%"><feGaussianBlur result="b" stdDeviation="3"/><feMerge><feMergeNode in="b"/><feMergeNode in="SourceGraphic"/></feMerge></filter><linearGradient id="c" x2="0" y2="1"><stop stop-color="#3c1818" offset="0"/><stop stop-color="#1c0808" offset="1"/></linearGradient><linearGradient id="b" x2="0" y2="1"><stop stop-color="#220d0d" offset="0"/><stop stop-color="#0d0404" offset="1"/></linearGradient><radialGradient id="d" cx="46%" cy="58%" r="56%"><stop stop-color="#512020" offset="0"/><stop stop-color="#3e1818" offset=".55"/><stop stop-color="#2a1010" offset="1"/></radialGradient></defs><polygon points="0 96 64 128 64 144 0 112" fill="url(#c)"/><polygon points="64 128 128 96 128 112 64 144" fill="url(#b)"/><polygon points="64 64 128 96 64 128 0 96" fill="url(#d)"/><path d="m64 64-64 32" fill="none" opacity=".65" stroke="#5e2424" stroke-width="1.2"/><path d="m64 64 64 32" fill="none" opacity=".5" stroke="#180a0a"/><path d="m26 82 14 8 10-4 14 10 16 12 10-3 12 7" fill="none" stroke="#150606" stroke-width="2.8"/><path class="al" d="m26 82 14 8 10-4 14 10 16 12 10-3 12 7" fill="none" filter="url(#a)" opacity=".88" stroke="#f30" stroke-width="1.4"/><path d="m24 110 16-7 17-6 11-13 22-6" fill="none" stroke="#150606" stroke-width="1.8"/><path class="als" d="m24 110 16-7 17-6 11-13 22-6" fill="none" filter="url(#a)" opacity=".72" stroke="#c20" stroke-width=".9"/><path class="al" d="m64 96 8-16-8-8" fill="none" filter="url(#a)" opacity=".5" stroke="#ee2800" stroke-width=".7"/><ellipse cx="43" cy="89" rx="5.5" ry="2.6" fill="#0f0505"/><ellipse class="al" cx="43" cy="89" rx="3.5" ry="1.6" fill="#f40" filter="url(#a)" opacity=".92"/><ellipse cx="83" cy="105" rx="4.2" ry="2" fill="#0f0505"/><ellipse class="als" cx="83" cy="105" rx="2.6" ry="1.2" fill="#f60" filter="url(#a)" opacity=".84"/><polygon points="35 97 43 93 45 98 37 102" fill="#301414" stroke="#190808" stroke-width=".5"/><polygon points="71 81 79 77 81 82 73 86" fill="#321616"/></svg>