<svg viewBox="0 0 128 144" xmlns="http://www.w3.org/2000/svg"><defs><filter id="a" x="-20%" y="-20%" width="140%" height="140%"><feGaussianBlur result="blur" stdDeviation="2.5"/><feComposite in="SourceGraphic" in2="blur"/></filter></defs><polygon points="0 96 64 128 64 144 0 112" fill="#2a1414" stroke="#2a1414"/><polygon points="64 128 128 96 128 112 64 144" fill="#170909" stroke="#170909"/><polygon points="64 64 128 96 64 128 0 96" fill="#3d1c1c" stroke="#3d1c1c" stroke-linejoin="round"/><path d="m32 80 13 8 7-3 12 11 11 12 10-3 11 7" fill="none" filter="url(#a)" stroke="#8a0303" stroke-width="3"><animate attributeName="opacity" dur="2s" repeatCount="indefinite" values="0.5; 1; 0.5"/></path><path d="m32 80 13 8 7-3 12 11 11 12 10-3 11 7" fill="none" stroke="#ff4545"/><path d="m32 112 10-7 22-9 8-14 24-2" fill="none" filter="url(#a)" stroke="#8a0303" stroke-width="2"/></svg>