<svg xmlns="http://www.w3.org/2000/svg" viewBox="0 0 64 32" width="64" height="32">
  <defs>
    <linearGradient id="g" x1="0" y1="0" x2="64" y2="32" gradientUnits="userSpaceOnUse">
      <stop offset="0%" stop-color="#5E3C22"/>
      <stop offset="100%" stop-color="#1E0C06"/>
    </linearGradient>
    <clipPath id="d">
      <polygon points="32,0 64,16 32,32 0,16"/>
    </clipPath>
  </defs>
  <polygon points="32,0 64,16 32,32 0,16" fill="url(#g)"/>
  <g clip-path="url(#d)">
    <polygon points="32,0 10,12 18,18 40,6" fill="#7A5030" opacity="0.25"/>
    <path d="M22 10 L34 18 L30 26" stroke="#160A04" stroke-width="1.5" fill="none" stroke-linecap="round"/>
    <path d="M42 8 L52 18" stroke="#160A04" stroke-width="1.2" fill="none"/>
    <path d="M14 18 L22 24" stroke="#160A04" stroke-width="1" fill="none"/>
    <rect x="18" y="20" width="3" height="2" rx="1" fill="#1A0A04"/>
    <rect x="44" y="13" width="2" height="2" rx="1" fill="#1A0A04"/>
    <rect x="36" y="24" width="2" height="2" rx="1" fill="#1A0A04"/>
    <rect x="28" y="8" width="2" height="2" rx="1" fill="#1A0A04" opacity="0.6"/>
  </g>
</svg>
