<svg viewBox="0 0 128 144" xmlns="http://www.w3.org/2000/svg"><defs><filter id="g" x="-20%" y="-20%" width="140%" height="140%"><feGaussianBlur result="b" stdDeviation="2"/><feMerge><feMergeNode in="b"/><feMergeNode in="SourceGraphic"/></feMerge></filter><radialGradient id="a" cy="58%" r="54%"><stop stop-color="#461c1c" offset="0"/><stop stop-color="#2c1010" offset="1"/></radialGradient></defs><polygon points="0 96 64 128 64 144 0 112" fill="#321212"/><polygon points="64 128 128 96 128 112 64 144" fill="#170808"/><polygon points="64 64 128 96 64 128 0 96" fill="url(#a)"/><path d="M64 64 0 96" opacity=".55" stroke="#5a2020"/><path d="m12 108q26-21 52-8 16 2 50-12l-16-10q-20 6-38 8-26-12-44 14z" fill="#2a1010"/><polygon points="30 98 39 94 41 99 32 103" fill="#b4aca2"/><polygon points="56 94 65 90 67 95 58 99" fill="#a49c94"/><polygon points="82 84 90 80 92 85 84 89" fill="#c2bab0"/><circle cx="44" cy="103" r="1.6" fill="#928a80"/><circle cx="72" cy="92" r="1.3" fill="#a49c90"/><path d="m28 114q36-2 36-16 0-16 32-20" fill="none" filter="url(#g)" opacity=".72" stroke="#880303" stroke-width="3.5"/><path d="m28 114q36-2 36-16 0-16 32-20" fill="none" opacity=".9" stroke="#ff2a2a" stroke-width="1.4"/></svg>