<svg viewBox="0 0 128 144" xmlns="http://www.w3.org/2000/svg"><defs><filter id="d" x="-50%" y="-50%" width="200%" height="200%"><feGaussianBlur result="b" stdDeviation="1.5"/><feMerge><feMergeNode in="b"/><feMergeNode in="SourceGraphic"/></feMerge></filter><filter id="m" x="-40%" y="-40%" width="180%" height="180%"><feGaussianBlur stdDeviation="5"/></filter><radialGradient id="a" cy="62%" r="53%"><stop stop-color="#3c1818" offset="0"/><stop stop-color="#1e0c0c" offset="1"/></radialGradient><radialGradient id="b" cy="72%"><stop stop-color="#961c1c" stop-opacity=".24" offset="0"/><stop stop-color="#961c1c" stop-opacity="0" offset="1"/></radialGradient></defs><polygon points="0 96 64 128 64 144 0 112" fill="#200d0d"/><polygon points="64 128 128 96 128 112 64 144" fill="#0c0404"/><polygon points="64 64 128 96 64 128 0 96" fill="url(#a)"/><path d="M64 64 0 96" opacity=".55" stroke="#401a1a"/><ellipse cx="64" cy="112" rx="50" ry="17" fill="url(#b)" filter="url(#m)"/><ellipse cx="52" cy="120" rx="16" ry="6" fill="#580a0a" opacity=".6"/><path d="m62 118q-4-24 2-50" fill="none" stroke="#1c0808" stroke-linecap="round" stroke-width="8"/><path d="m62 118q-4-24 2-50" fill="none" stroke="#301010" stroke-linecap="round" stroke-width="4.5"/><path d="m64 68q30-18 24 2-24 14-48-2-6-20 24 0z" fill="#801414"/><path d="m64 68q30-18 24 2" fill="#ae2424"/><path d="m64 68q-30-18-22 2" fill="#922020"/><path d="m64 60q20-16 14-2-14 10-28-2-8-12 14 4z" fill="#601010"/><path d="m64 60q20-16 14-2" fill="#921818"/><path d="m64 80q-20-6-28 0m28 0q22-4 32 2" fill="none" stroke="#2c0c0c" stroke-width="2.2"/><path d="m60 74-2 14m14-18-2 12m-20-14-2 12m32-16-2 12" filter="url(#d)" stroke="#ec2525" stroke-linecap="round" stroke-width="2"/><path d="m40 78q-4 12-2 24m52-28q4 12 2 24m-28-14q-2 10-4 24" fill="none" stroke="#400a0a" stroke-width="1.3"/></svg>