<svg viewBox="0 0 128 144" xmlns="http://www.w3.org/2000/svg"><defs><filter id="a" x="-50%" y="-50%" width="200%" height="200%"><feGaussianBlur result="blur" stdDeviation="1.5"/><feComposite in="SourceGraphic" in2="blur"/></filter></defs><polygon points="0 96 64 128 64 144 0 112" fill="#1c0d0d" stroke="#1c0d0d"/><polygon points="64 128 128 96 128 112 64 144" fill="#0a0505" stroke="#0a0505"/><polygon points="64 64 128 96 64 128 0 96" fill="#2b1414" stroke="#2b1414" stroke-linejoin="round"/><path d="m50 85q-20 10-30 0" fill="none" stroke="#3d0707" stroke-linecap="round" stroke-width="3"/><path d="m55 95q-10-25 9-35 21 10 11 35" fill="#4a0909"/><path d="m64 60q21-10 16 15-16 10-35 0-5-25 19-15z" fill="#8a0303"/><circle cx="55" cy="70" r="2" fill="#ff2a2a" filter="url(#a)"><animate attributeName="cy" dur="2.5s" repeatCount="indefinite" values="70; 90; 70"/><animate attributeName="opacity" dur="2.5s" repeatCount="indefinite" values="1; 0; 1"/></circle></svg>