<svg viewBox="0 0 128 144" xmlns="http://www.w3.org/2000/svg"><defs><filter id="a" x="-50%" y="-50%" width="200%" height="200%"><feGaussianBlur result="blur" stdDeviation="1.5"/><feComposite in="SourceGraphic" in2="blur"/></filter></defs><polygon points="0 96 64 128 64 144 0 112" fill="#1c0d0d" stroke="#1c0d0d"/><polygon points="64 128 128 96 128 112 64 144" fill="#0a0505" stroke="#0a0505"/><polygon points="64 64 128 96 64 128 0 96" fill="#2b1414" stroke="#2b1414" stroke-linejoin="round"/><path d="m64 80q-4-10 6-20 5 10-2 20" fill="#3d0707"/><path d="m70 60q15-5 10 10-15 5-25-5 0-15 15-5z" fill="#6e1313"/><circle cx="62" cy="65" r="1.5" fill="#ff2a2a" filter="url(#a)"><animate attributeName="cy" dur="2s" repeatCount="indefinite" values="65; 78; 65"/><animate attributeName="opacity" dur="2s" repeatCount="indefinite" values="1; 0; 1"/></circle><path d="m40 95q-5-10 7-25 6 15-2 25" fill="#4a0909"/><path d="m47 70q13-5 10 10-12 5-22 0-5-15 12-10z" fill="#8a0303"/></svg>