<svg viewBox="0 0 128 144" xmlns="http://www.w3.org/2000/svg"><defs><filter id="d" x="-50%" y="-50%" width="200%" height="200%"><feGaussianBlur result="b" stdDeviation="1.5"/><feMerge><feMergeNode in="b"/><feMergeNode in="SourceGraphic"/></feMerge></filter><filter id="m" x="-40%" y="-40%" width="180%" height="180%"><feGaussianBlur stdDeviation="5"/></filter><radialGradient id="a" cy="63%" r="53%"><stop stop-color="#381818" offset="0"/><stop stop-color="#1c0c0c" offset="1"/></radialGradient><radialGradient id="b" cy="70%"><stop stop-color="#7e1818" stop-opacity=".28" offset="0"/><stop stop-color="#7e1818" stop-opacity="0" offset="1"/></radialGradient></defs><polygon points="0 96 64 128 64 144 0 112" fill="#200d0d"/><polygon points="64 128 128 96 128 112 64 144" fill="#0c0505"/><polygon points="64 64 128 96 64 128 0 96" fill="url(#a)"/><path d="M64 64 0 96" opacity=".6" stroke="#421a1a" stroke-width="1.2"/><ellipse cx="64" cy="110" rx="46" ry="15" fill="url(#b)" filter="url(#m)"/><ellipse cx="48" cy="116" rx="13" ry="5.5" fill="#560909" opacity=".7"/><path d="m42 114q-4-22 2-42" fill="none" stroke="#1e0808" stroke-linecap="round" stroke-width="6"/><path d="m42 114q-4-22 2-42" fill="none" stroke="#301010" stroke-linecap="round" stroke-width="3.5"/><path d="m44 72q16-14 12 0-14 6-22-2" fill="#5e0d0d"/><path d="m44 72q16-14 12 0" fill="#921414"/><path d="m44 72q-14-10-12 4 6 4 14-2" fill="#720e0e"/><path d="m44 76-1 12m9-20-1 11" filter="url(#d)" stroke="#e32222" stroke-linecap="round" stroke-width="2"/><path d="m87 104q-3-22 3-42" fill="none" stroke="#1e0909" stroke-linecap="round" stroke-width="5.5"/><path d="m87 104q-3-22 3-42" fill="none" stroke="#2e1010" stroke-linecap="round" stroke-width="3"/><path d="m90 62q20-14 16 2-18 10-26-2" fill="#6e1212"/><path d="m90 62q20-14 16 2" fill="#a02020"/><path d="m90 62q-16-8-14 4 6 4 16-2" fill="#7c1414"/><path d="m93 66-1 11m10-17-1 11" filter="url(#d)" stroke="#e32222" stroke-linecap="round" stroke-width="1.8"/><path d="m38 78q-4 10-2 20m60-30q4 12 2 24" fill="none" stroke="#3e0a0a" stroke-width="1.3"/></svg>