<svg xmlns="http://www.w3.org/2000/svg" width="128" height="160" viewBox="0 0 128 160" role="img" aria-label="Ash Collector">
  <defs>
    <linearGradient id="ashRobe" x1="0" x2="1" y1="0" y2="1">
      <stop offset="0" stop-color="#9ba1a6"/>
      <stop offset="1" stop-color="#30363d"/>
    </linearGradient>
  </defs>
  <ellipse cx="64" cy="143" rx="35" ry="9" fill="#090607" opacity="0.55"/>
  <path d="M45 56c8-17 31-17 39 0 12 24 11 58 2 73-8 14-36 14-44 0-9-15-9-49 3-73z" fill="url(#ashRobe)" stroke="#15191d" stroke-width="5"/>
  <path d="M46 78c-13 8-20 24-18 40M82 78c13 8 20 24 18 40" fill="none" stroke="#6e7681" stroke-width="8" stroke-linecap="round"/>
  <circle cx="64" cy="38" r="21" fill="#b7b1a5" stroke="#15191d" stroke-width="5"/>
  <path d="M44 39c9-15 32-16 41-2-11 6-29 7-41 2z" fill="#24292f"/>
  <circle cx="56" cy="42" r="3" fill="#0b0d0f"/>
  <circle cx="72" cy="42" r="3" fill="#0b0d0f"/>
  <path d="M55 54c7 4 13 4 19 0" fill="none" stroke="#24292f" stroke-width="4" stroke-linecap="round"/>
  <path d="M48 124l-6 20M80 124l7 20" stroke="#24292f" stroke-width="9" stroke-linecap="round"/>
  <path d="M94 102l18 34" stroke="#8b949e" stroke-width="6" stroke-linecap="round"/>
  <path d="M105 132c-12 2-21-1-26-8 4 18 34 20 43 7-5 1-11 1-17 1z" fill="#4d5359" stroke="#15191d" stroke-width="4"/>
  <circle cx="91" cy="116" r="5" fill="#cdd9e5" opacity="0.55"/>
</svg>
